# xmcd
#
# Track frame offsets: 
#        150
#        6091
#        12454
#        22406
#        35137
#        45894
#        53515
#        68197
#        75838
#        84461
#        95572
#        106450
#        115188
#        125295
#        133558
#        145295
#        154180
#        166185
#        173548
#        181173
#
# Disc length: 2550 seconds
#
# Revision: 2
# Processed by: cddbd v1.5.2PL0 Copyright (c) Steve Scherf et al.
# Submitted via: ExactAudioCopy v1.0b3
#
DISCID=f709f414
DTITLE=Reeves, Jim - The Gentleman Of Country
DYEAR=2006
DGENRE=Country
TTITLE0=Have I Told You Lately That I Love You?
TTITLE1=I'm Beginning To Forget You
TTITLE2=Just Call Me Lonesome
TTITLE3=How's The World Treating You
TTITLE4=If Heartaches Are The Fashion
TTITLE5=Till The End Of The World
TTITLE6=Making Believe
TTITLE7=Oklahoma Hills
TTITLE8=If You Were Only Mine
TTITLE9=Am I Losing You?
TTITLE10=I Love You More
TTITLE11=According To My Heart
TTITLE12=Anna Marie
TTITLE13=Wind Up Doll
TTITLE14=Your Old Love Letters
TTITLE15=I'd Like To Be
TTITLE16=Four Walls
TTITLE17=Blue Boy
TTITLE18=I Know One
TTITLE19=I Missed Me
EXTD=
EXTT0=
EXTT1=
EXTT2=
EXTT3=
EXTT4=
EXTT5=
EXTT6=
EXTT7=
EXTT8=
EXTT9=
EXTT10=
EXTT11=
EXTT12=
EXTT13=
EXTT14=
EXTT15=
EXTT16=
EXTT17=
EXTT18=
EXTT19=
PLAYORDER=
